<svg width="1045.9" height="731.6" viewBox="-115.4 -145.8 1045.9 731.6" xmlns="http://www.w3.org/2000/svg">
<defs>
<marker id="arrow" viewBox="0 0 10 10" refX="10" refY="5" markerWidth="6" markerHeight="6" orient="auto-start-reverse"><path d="M 0 0 L 10 5 L 0 10 z" fill="black" /></marker>
<marker id="call_arrow" viewBox="0 0 10 10" refX="10" refY="5" markerWidth="8" markerHeight="8" orient="auto-start-reverse"><path d="M 0 0 L 10 5 L 0 10 M 0 2 L 6 5 L 0 8" fill="none" stroke="black" stroke-width="1" /></marker>
</defs>
<rect x="-115.4" y="-145.8" width="1045.9" height="731.6" fill="white" />
<rect x="130.0" y="150.0" width="200.0" height="120.0" stroke="black" fill="white" stroke-width="1.5" data-id="A21" />
<text x="230.0" y="191.4" text-anchor="middle" font-size="23" font-weight="bold" font-family="'Times New Roman', 'BiauKai', 'DFKai-SB', '标楷体', serif" data-id="A21" >A21</text>
<text x="230.0" y="234.3" text-anchor="middle" font-size="25" font-weight="bold" font-family="'Times New Roman', 'BiauKai', 'DFKai-SB', '标楷体', serif" data-id="A21" >探測能力</text>
<rect x="485.0" y="150.0" width="200.0" height="120.0" stroke="black" fill="white" stroke-width="1.5" data-id="A22" />
<text x="585.0" y="191.4" text-anchor="middle" font-size="23" font-weight="bold" font-family="'Times New Roman', 'BiauKai', 'DFKai-SB', '标楷体', serif" data-id="A22" >A22</text>
<text x="585.0" y="234.3" text-anchor="middle" font-size="25" font-weight="bold" font-family="'Times New Roman', 'BiauKai', 'DFKai-SB', '标楷体', serif" data-id="A22" >橋接指標</text>
<rect x="130.0" y="370.0" width="200.0" height="120.0" stroke="black" fill="white" stroke-width="1.5" data-id="A23" />
<text x="230.0" y="411.4" text-anchor="middle" font-size="23" font-weight="bold" font-family="'Times New Roman', 'BiauKai', 'DFKai-SB', '标楷体', serif" data-id="A23" >A23</text>
<text x="230.0" y="454.3" text-anchor="middle" font-size="25" font-weight="bold" font-family="'Times New Roman', 'BiauKai', 'DFKai-SB', '标楷体', serif" data-id="A23" >設計匯出器</text>
<rect x="485.0" y="370.0" width="200.0" height="120.0" stroke="black" fill="white" stroke-width="1.5" data-id="A24" />
<text x="585.0" y="411.4" text-anchor="middle" font-size="23" font-weight="bold" font-family="'Times New Roman', 'BiauKai', 'DFKai-SB', '标楷体', serif" data-id="A24" >A24</text>
<text x="585.0" y="454.3" text-anchor="middle" font-size="25" font-weight="bold" font-family="'Times New Roman', 'BiauKai', 'DFKai-SB', '标楷体', serif" data-id="A24" >回報缺口</text>
<rect x="80.0" y="64.2" width="655.0" height="511.6" stroke="black" fill="none" stroke-width="2" />
<rect x="287.5" y="-135.8" width="240.0" height="110.0" stroke="black" fill="white" stroke-width="1.5" data-id="A2" />
<text x="407.5" y="-97.9" text-anchor="middle" font-size="20" font-weight="bold" font-family="'Times New Roman', 'BiauKai', 'DFKai-SB', '标楷体', serif" data-id="A2" >A2</text>
<text x="407.5" y="-59.3" text-anchor="middle" font-size="22" font-weight="bold" font-family="'Times New Roman', 'BiauKai', 'DFKai-SB', '标楷体', serif" data-id="A2" >監控基礎設施 A2</text>
<line x1="287.5" y1="-135.8" x2="80.0" y2="64.2" stroke="red" stroke-dasharray="5,5" stroke-width="1.0" opacity="0.6" />
<line x1="527.5" y1="-135.8" x2="735.0" y2="64.2" stroke="red" stroke-dasharray="5,5" stroke-width="1.0" opacity="0.6" />
<line x1="287.5" y1="-25.8" x2="80.0" y2="575.8" stroke="red" stroke-dasharray="5,5" stroke-width="1.0" opacity="0.6" />
<line x1="527.5" y1="-25.8" x2="735.0" y2="575.8" stroke="red" stroke-dasharray="5,5" stroke-width="1.0" opacity="0.6" />
<path d="M 330.0 190.0 L 485.0 190.0" stroke="black" stroke-width="1.2" data-arrow-id="A2F2122" data-waypoints="330.0,190.0 485.0,190.0" marker-end="url(#arrow)" fill="none" />
<path d="M 330.0 450.0 L 485.0 450.0" stroke="black" stroke-width="1.2" data-arrow-id="A2F2324" data-waypoints="330.0,450.0 485.0,450.0" marker-end="url(#arrow)" fill="none" />
<path d="M 330.0 230.0 L 397.5 230.0 Q 407.5 230.0 407.5 240.0 L 407.5 400.0 Q 407.5 410.0 417.5 410.0 L 485.0 410.0" stroke="black" stroke-width="1.2" data-arrow-id="A2F2124" data-waypoints="330.0,230.0 407.5,230.0 407.5,410.0 485.0,410.0" marker-end="url(#arrow)" fill="none" />
<path d="M 30.0 210.0 L 130.0 210.0" stroke="black" stroke-width="1.2" data-arrow-id="A2I1" data-waypoints="30.0,210.0 130.0,210.0" marker-end="url(#arrow)" fill="none" />
<path d="M 230.0 114.2 L 230.0 150.0" stroke="black" stroke-width="1.2" data-arrow-id="A2C1" data-waypoints="230.0,114.2 230.0,150.0" marker-end="url(#arrow)" fill="none" />
<path d="M 230.0 334.2 L 230.0 370.0" stroke="black" stroke-width="1.2" data-arrow-id="A2C2" data-waypoints="230.0,334.2 230.0,370.0" marker-end="url(#arrow)" fill="none" />
<path d="M 585.0 305.8 L 585.0 270.0" stroke="black" stroke-width="1.2" data-arrow-id="A2M1" data-waypoints="585.0,305.8 585.0,270.0" marker-end="url(#arrow)" fill="none" />
<path d="M 230.0 525.8 L 230.0 490.0" stroke="black" stroke-width="1.2" data-arrow-id="A2M2" data-waypoints="230.0,525.8 230.0,490.0" marker-end="url(#arrow)" fill="none" />
<path d="M 685.0 430.0 L 785.0 430.0" stroke="black" stroke-width="1.2" data-arrow-id="A2O1" data-waypoints="685.0,430.0 785.0,430.0" marker-end="url(#arrow)" fill="none" />
<text x="230.0" y="108.2" font-size="14" text-anchor="middle" font-weight="bold" fill="black" font-family="'Times New Roman', 'BiauKai', 'DFKai-SB', '标楷体', serif" data-arrow-id="A2C1">能力偵測優先於 DSM 版本依賴</text>
<text x="230.0" y="328.2" font-size="14" text-anchor="middle" font-weight="bold" fill="black" font-family="'Times New Roman', 'BiauKai', 'DFKai-SB', '标楷体', serif" data-arrow-id="A2C2">指標中不得包含檔案內容或敏感標籤</text>
<text x="585.0" y="321.8" font-size="14" text-anchor="middle" font-weight="bold" fill="black" font-family="'Times New Roman', 'BiauKai', 'DFKai-SB', '标楷体', serif" data-arrow-id="A2M1">Prometheus 與 snmp_exporter</text>
<text x="230.0" y="541.8" font-size="14" text-anchor="middle" font-weight="bold" fill="black" font-family="'Times New Roman', 'BiauKai', 'DFKai-SB', '标楷体', serif" data-arrow-id="A2M2">自製 C 匯出器設計</text>
<text x="407.5" y="182.0" font-size="14" font-weight="bold" fill="black" text-anchor="middle" font-family="'Times New Roman', 'BiauKai', 'DFKai-SB', '标楷体', serif" data-arrow-id="A2F2122" >已核准的指標蒐集面</text>
<text x="407.5" y="442.0" font-size="14" font-weight="bold" fill="black" text-anchor="middle" font-family="'Times New Roman', 'BiauKai', 'DFKai-SB', '标楷体', serif" data-arrow-id="A2F2324" >匯出器能力指標契約</text>
<text x="437.5" y="357.9" font-size="14" font-weight="bold" fill="black" text-anchor="start" font-family="'Times New Roman', 'BiauKai', 'DFKai-SB', '标楷体', serif" data-arrow-id="A2F2124" >缺失或受阻的能力</text>
<text x="26.0" y="201.0" font-size="20" text-anchor="end" font-weight="bold" fill="black" font-family="'Times New Roman', 'BiauKai', 'DFKai-SB', '标楷体', serif" data-arrow-id="A2I1">NAS 監控面與</text>
<text x="26.0" y="227.0" font-size="20" text-anchor="end" font-weight="bold" fill="black" font-family="'Times New Roman', 'BiauKai', 'DFKai-SB', '标楷体', serif" data-arrow-id="A2I1">核准探測方法</text>
<text x="789.0" y="421.0" font-size="20" text-anchor="start" font-weight="bold" fill="black" font-family="'Times New Roman', 'BiauKai', 'DFKai-SB', '标楷体', serif" data-arrow-id="A2O1">基礎設施與</text>
<text x="789.0" y="447.0" font-size="20" text-anchor="start" font-weight="bold" fill="black" font-family="'Times New Roman', 'BiauKai', 'DFKai-SB', '标楷体', serif" data-arrow-id="A2O1">能力缺口證據</text>
<path d="M 437.5,353.7 L 436.9,354.1 L 436.3,354.6 L 435.6,355.0 L 435.0,355.4 L 434.4,355.8 L 433.8,356.1 L 433.1,356.4 L 432.5,356.7 L 431.9,356.9 L 431.3,357.0 L 430.6,357.1 L 430.0,357.2 L 429.4,357.1 L 428.8,357.0 L 428.1,356.9 L 427.5,356.7 L 426.9,356.4 L 426.3,356.1 L 425.6,355.8 L 425.0,355.4 L 424.4,355.0 L 423.8,354.6 L 423.1,354.1 L 422.5,353.7 L 421.9,353.2 L 421.3,352.8 L 420.6,352.3 L 420.0,351.9 L 419.4,351.5 L 418.8,351.2 L 418.1,350.9 L 417.5,350.6 L 416.9,350.4 L 416.3,350.3 L 415.6,350.2 L 415.0,350.2 L 414.4,350.2 L 413.8,350.3 L 413.1,350.4 L 412.5,350.6 L 411.9,350.9 L 411.3,351.2 L 410.6,351.5 L 410.0,351.9 L 409.4,352.3 L 408.8,352.8 L 408.1,353.2 L 407.5,353.7" stroke="red" stroke-width="0.8" fill="none" opacity="0.5" />
</svg>