<svg width="1266.3" height="787.6" viewBox="-201.1 -171.8 1266.3 787.6" xmlns="http://www.w3.org/2000/svg">
<defs>
<marker id="arrow" viewBox="0 0 10 10" refX="10" refY="5" markerWidth="6" markerHeight="6" orient="auto-start-reverse"><path d="M 0 0 L 10 5 L 0 10 z" fill="black" /></marker>
<marker id="call_arrow" viewBox="0 0 10 10" refX="10" refY="5" markerWidth="8" markerHeight="8" orient="auto-start-reverse"><path d="M 0 0 L 10 5 L 0 10 M 0 2 L 6 5 L 0 8" fill="none" stroke="black" stroke-width="1" /></marker>
</defs>
<rect x="-201.1" y="-171.8" width="1266.3" height="787.6" fill="white" />
<rect x="130.0" y="120.0" width="212.0" height="160.0" stroke="black" fill="white" stroke-width="1.5" data-id="A31" />
<text x="236.0" y="180.4" text-anchor="middle" font-size="25" font-weight="bold" font-family="'Times New Roman', 'BiauKai', 'DFKai-SB', '標楷體', 'KaiTi', serif" data-id="A31" >A31</text>
<text x="236.0" y="226.1" text-anchor="middle" font-size="27" font-weight="bold" font-family="'Times New Roman', 'BiauKai', 'DFKai-SB', '標楷體', 'KaiTi', serif" data-id="A31" >接收 WEB 入口</text>
<rect x="482.0" y="120.0" width="212.0" height="160.0" stroke="black" fill="white" stroke-width="1.5" data-id="A32" />
<text x="588.0" y="158.0" text-anchor="middle" font-size="23" font-weight="bold" font-family="'Times New Roman', 'BiauKai', 'DFKai-SB', '標楷體', 'KaiTi', serif" data-id="A32" >A32</text>
<text x="588.0" y="200.8" text-anchor="middle" font-size="25" font-weight="bold" font-family="'Times New Roman', 'BiauKai', 'DFKai-SB', '標楷體', 'KaiTi', serif" data-id="A32" >解析</text>
<text x="588.0" y="247.7" text-anchor="middle" font-size="25" font-weight="bold" font-family="'Times New Roman', 'BiauKai', 'DFKai-SB', '標楷體', 'KaiTi', serif" data-id="A32" >DRIVE 物件</text>
<rect x="130.0" y="370.0" width="212.0" height="160.0" stroke="black" fill="white" stroke-width="1.5" data-id="A33" />
<text x="236.0" y="408.0" text-anchor="middle" font-size="23" font-weight="bold" font-family="'Times New Roman', 'BiauKai', 'DFKai-SB', '標楷體', 'KaiTi', serif" data-id="A33" >A33</text>
<text x="236.0" y="450.8" text-anchor="middle" font-size="25" font-weight="bold" font-family="'Times New Roman', 'BiauKai', 'DFKai-SB', '標楷體', 'KaiTi', serif" data-id="A33" >讀取 FILE</text>
<text x="236.0" y="497.7" text-anchor="middle" font-size="25" font-weight="bold" font-family="'Times New Roman', 'BiauKai', 'DFKai-SB', '標楷體', 'KaiTi', serif" data-id="A33" >STATION 傳輸</text>
<rect x="482.0" y="370.0" width="212.0" height="160.0" stroke="black" fill="white" stroke-width="1.5" data-id="A34" />
<text x="588.0" y="429.9" text-anchor="middle" font-size="26" font-weight="bold" font-family="'Times New Roman', 'BiauKai', 'DFKai-SB', '標楷體', 'KaiTi', serif" data-id="A34" >A34</text>
<text x="588.0" y="477.0" text-anchor="middle" font-size="28" font-weight="bold" font-family="'Times New Roman', 'BiauKai', 'DFKai-SB', '標楷體', 'KaiTi', serif" data-id="A34" >標記能力缺口</text>
<rect x="80.0" y="38.2" width="704.0" height="567.6" stroke="black" fill="none" stroke-width="2" />
<rect x="312.0" y="-161.8" width="240.0" height="110.0" stroke="black" fill="white" stroke-width="1.5" data-id="A3" />
<text x="432.0" y="-125.4" text-anchor="middle" font-size="23" font-weight="bold" font-family="'Times New Roman', 'BiauKai', 'DFKai-SB', '標楷體', 'KaiTi', serif" data-id="A3" >A3</text>
<text x="432.0" y="-82.5" text-anchor="middle" font-size="25" font-weight="bold" font-family="'Times New Roman', 'BiauKai', 'DFKai-SB', '標楷體', 'KaiTi', serif" data-id="A3" >蒐集防禦證據 A3</text>
<line x1="312.0" y1="-161.8" x2="80.0" y2="38.2" stroke="red" stroke-dasharray="5,5" stroke-width="1.0" opacity="0.6" />
<line x1="552.0" y1="-161.8" x2="784.0" y2="38.2" stroke="red" stroke-dasharray="5,5" stroke-width="1.0" opacity="0.6" />
<line x1="312.0" y1="-51.8" x2="80.0" y2="605.8" stroke="red" stroke-dasharray="5,5" stroke-width="1.0" opacity="0.6" />
<line x1="552.0" y1="-51.8" x2="784.0" y2="605.8" stroke="red" stroke-dasharray="5,5" stroke-width="1.0" opacity="0.6" />
<path d="M 342.0 490.0 L 482.0 490.0" stroke="black" stroke-width="1.2" data-arrow-id="A3F3334" data-waypoints="342.0,490.0 482.0,490.0" marker-end="url(#arrow)" fill="none" />
<path d="M 342.0 200.0 L 378.7 200.0 Q 388.7 200.0 388.7 210.0 L 388.7 440.0 Q 388.7 450.0 398.7 450.0 L 482.0 450.0" stroke="black" stroke-width="1.2" data-arrow-id="A3F3134" data-waypoints="342.0,200.0 388.7,200.0 388.7,450.0 482.0,450.0" marker-end="url(#arrow)" fill="none" />
<path d="M 694.0 200.0 L 724.0 200.0 Q 734.0 200.0 734.0 210.0 L 734.0 320.0 Q 734.0 330.0 724.0 330.0 L 445.3 330.0 Q 435.3 330.0 435.3 340.0 L 435.3 400.0 Q 435.3 410.0 445.3 410.0 L 482.0 410.0" stroke="black" stroke-width="1.2" data-arrow-id="A3F3234" data-waypoints="694.0,200.0 734.0,200.0 734.0,330.0 435.3,330.0 435.3,410.0 482.0,410.0" marker-end="url(#arrow)" fill="none" />
<path d="M 30.0 200.0 L 130.0 200.0" stroke="black" stroke-width="1.2" data-arrow-id="A3I1" data-waypoints="30.0,200.0 130.0,200.0" marker-end="url(#arrow)" fill="none" />
<path d="M 30.0 78.2 L 378.7 78.2 Q 388.7 78.2 388.7 88.2 L 388.7 170.0 Q 388.7 180.0 398.7 180.0 L 482.0 180.0" stroke="black" stroke-width="1.2" data-arrow-id="A3I2" data-waypoints="30.0,78.2 388.7,78.2 388.7,180.0 482.0,180.0" marker-end="url(#arrow)" fill="none" />
<path d="M 30.0 450.0 L 130.0 450.0" stroke="black" stroke-width="1.2" data-arrow-id="A3I3" data-waypoints="30.0,450.0 130.0,450.0" marker-end="url(#arrow)" fill="none" />
<path d="M 236.0 84.2 L 236.0 120.0" stroke="black" stroke-width="1.2" data-arrow-id="A3C1" data-waypoints="236.0,84.2 236.0,120.0" marker-end="url(#arrow)" fill="none" />
<path d="M 588.0 84.2 L 588.0 120.0" stroke="black" stroke-width="1.2" data-arrow-id="A3C2" data-waypoints="588.0,84.2 588.0,120.0" marker-end="url(#arrow)" fill="none" />
<path d="M 236.0 315.8 L 236.0 280.0" stroke="black" stroke-width="1.2" data-arrow-id="A3M1" data-waypoints="236.0,315.8 236.0,280.0" marker-end="url(#arrow)" fill="none" />
<path d="M 588.0 315.8 L 588.0 280.0" stroke="black" stroke-width="1.2" data-arrow-id="A3M2" data-waypoints="588.0,315.8 588.0,280.0" marker-end="url(#arrow)" fill="none" />
<path d="M 236.0 565.8 L 236.0 530.0" stroke="black" stroke-width="1.2" data-arrow-id="A3M3" data-waypoints="236.0,565.8 236.0,530.0" marker-end="url(#arrow)" fill="none" />
<path d="M 694.0 450.0 L 834.0 450.0" stroke="black" stroke-width="1.2" data-arrow-id="A3O1" data-waypoints="694.0,450.0 834.0,450.0" marker-end="url(#arrow)" fill="none" />
<text x="230.0" y="114.0" font-size="14" text-anchor="end" font-weight="bold" fill="black" font-family="'Times New Roman', 'BiauKai', 'DFKai-SB', '標楷體', 'KaiTi', serif" data-arrow-id="A3C1">metadata-first</text>
<text x="242.0" y="114.0" font-size="14" text-anchor="start" font-weight="bold" fill="black" font-family="'Times New Roman', 'BiauKai', 'DFKai-SB', '標楷體', 'KaiTi', serif" data-arrow-id="A3C1">不讀檔案內容</text>
<text x="588.0" y="78.2" font-size="14" text-anchor="middle" font-weight="bold" fill="black" font-family="'Times New Roman', 'BiauKai', 'DFKai-SB', '標楷體', 'KaiTi', serif" data-arrow-id="A3C2">SSH stdin、SQLite read-only</text>
<text x="236.0" y="331.8" font-size="14" text-anchor="middle" font-weight="bold" fill="black" font-family="'Times New Roman', 'BiauKai', 'DFKai-SB', '標楷體', 'KaiTi', serif" data-arrow-id="A3M1">Grafana Alloy</text>
<text x="582.0" y="296.0" font-size="14" text-anchor="end" font-weight="bold" fill="black" font-family="'Times New Roman', 'BiauKai', 'DFKai-SB', '標楷體', 'KaiTi', serif" data-arrow-id="A3M2">drive_file_resolver</text>
<text x="594.0" y="296.0" font-size="14" text-anchor="start" font-weight="bold" fill="black" font-family="'Times New Roman', 'BiauKai', 'DFKai-SB', '標楷體', 'KaiTi', serif" data-arrow-id="A3M2">drive_event_enricher</text>
<text x="236.0" y="581.8" font-size="14" text-anchor="middle" font-weight="bold" fill="black" font-family="'Times New Roman', 'BiauKai', 'DFKai-SB', '標楷體', 'KaiTi', serif" data-arrow-id="A3M3">file_station_transfer_adapter</text>
<text x="412.0" y="485.0" font-size="14" font-weight="bold" fill="black" text-anchor="middle" font-family="'Times New Roman', 'BiauKai', 'DFKai-SB', '標楷體', 'KaiTi', serif" data-arrow-id="A3F3334">download/export</text>
<text x="412.0" y="502.0" font-size="14" font-weight="bold" fill="black" text-anchor="middle" font-family="'Times New Roman', 'BiauKai', 'DFKai-SB', '標楷體', 'KaiTi', serif" data-arrow-id="A3F3334">evidence</text>
<text x="358.7" y="360.6" font-size="14" font-weight="bold" fill="black" text-anchor="end" font-family="'Times New Roman', 'BiauKai', 'DFKai-SB', '標楷體', 'KaiTi', serif" data-arrow-id="A3F3134" >route-level candidate evidence</text>
<text x="588.0" y="348.0" font-size="14" font-weight="bold" fill="black" text-anchor="middle" font-family="'Times New Roman', 'BiauKai', 'DFKai-SB', '標楷體', 'KaiTi', serif" data-arrow-id="A3F3234" >Drive readable metadata evidence</text>
<text x="26.0" y="191.0" font-size="20" text-anchor="end" font-weight="bold" fill="black" font-family="'Times New Roman', 'BiauKai', 'DFKai-SB', '標楷體', 'KaiTi', serif" data-arrow-id="A3I1">nginx route/timing/</text>
<text x="26.0" y="217.0" font-size="20" text-anchor="end" font-weight="bold" fill="black" font-family="'Times New Roman', 'BiauKai', 'DFKai-SB', '標楷體', 'KaiTi', serif" data-arrow-id="A3I1">status evidence</text>
<text x="26.0" y="69.2" font-size="20" text-anchor="end" font-weight="bold" fill="black" font-family="'Times New Roman', 'BiauKai', 'DFKai-SB', '標楷體', 'KaiTi', serif" data-arrow-id="A3I2">Drive file id 與</text>
<text x="26.0" y="95.2" font-size="20" text-anchor="end" font-weight="bold" fill="black" font-family="'Times New Roman', 'BiauKai', 'DFKai-SB', '標楷體', 'KaiTi', serif" data-arrow-id="A3I2">SQLite metadata</text>
<text x="26.0" y="441.0" font-size="20" text-anchor="end" font-weight="bold" fill="black" font-family="'Times New Roman', 'BiauKai', 'DFKai-SB', '標楷體', 'KaiTi', serif" data-arrow-id="A3I3">File Station</text>
<text x="26.0" y="467.0" font-size="20" text-anchor="end" font-weight="bold" fill="black" font-family="'Times New Roman', 'BiauKai', 'DFKai-SB', '標楷體', 'KaiTi', serif" data-arrow-id="A3I3">transfer DB rows</text>
<text x="838.0" y="441.0" font-size="20" text-anchor="start" font-weight="bold" fill="black" font-family="'Times New Roman', 'BiauKai', 'DFKai-SB', '標楷體', 'KaiTi', serif" data-arrow-id="A3O1">安全原始</text>
<text x="838.0" y="467.0" font-size="20" text-anchor="start" font-weight="bold" fill="black" font-family="'Times New Roman', 'BiauKai', 'DFKai-SB', '標楷體', 'KaiTi', serif" data-arrow-id="A3O1">證據候選集</text>
<path d="M 358.7,356.4 L 359.3,356.8 L 359.9,357.3 L 360.5,357.7 L 361.2,358.1 L 361.8,358.5 L 362.4,358.8 L 363.0,359.1 L 363.7,359.4 L 364.3,359.6 L 364.9,359.8 L 365.5,359.8 L 366.2,359.9 L 366.8,359.8 L 367.4,359.8 L 368.0,359.6 L 368.7,359.4 L 369.3,359.1 L 369.9,358.8 L 370.5,358.5 L 371.2,358.1 L 371.8,357.7 L 372.4,357.3 L 373.0,356.8 L 373.7,356.4 L 374.3,355.9 L 374.9,355.5 L 375.5,355.0 L 376.2,354.6 L 376.8,354.2 L 377.4,353.9 L 378.0,353.6 L 378.7,353.3 L 379.3,353.1 L 379.9,353.0 L 380.5,352.9 L 381.2,352.9 L 381.8,352.9 L 382.4,353.0 L 383.0,353.1 L 383.7,353.3 L 384.3,353.6 L 384.9,353.9 L 385.5,354.2 L 386.2,354.6 L 386.8,355.0 L 387.4,355.5 L 388.0,355.9 L 388.7,356.4" stroke="red" stroke-width="0.8" fill="none" opacity="0.5" />
</svg>