<svg xmlns="http://www.w3.org/2000/svg" width="1235" height="1800" viewBox="-10.00 -2.00 69.98 102.00" role="img">
<style>
.step{fill:#fff;stroke:#111;stroke-width:.14}.step-inner{fill:none;stroke:#111;stroke-width:.08}
.action{fill:#fff;stroke:#111;stroke-width:.14}.action-inner{fill:none;stroke:#111;stroke-width:.08}.gate{stroke:#111;stroke-width:.16}
.edge{fill:none;stroke:#111;stroke-width:.05;stroke-linecap:round;stroke-linejoin:round}.edge-arrow{marker-end:url(#arrow)}
.flyover-mask{stroke:#fff;stroke-width:.12;stroke-linecap:round}
.flyover{fill:none;stroke:#111;stroke-width:.05;stroke-linecap:round}
.junction{fill:#111;stroke:#111;stroke-width:0}.branch-junction{fill:#fff;stroke:#111;stroke-width:.08}
.assoc{stroke:#111;stroke-width:.05}.label{font:bold .7px 'Times New Roman', 'BiauKai', 'DFKai-SB', serif;text-anchor:middle;dominant-baseline:middle}
.action-label{font:.55px 'Times New Roman', 'BiauKai', 'DFKai-SB', serif;text-anchor:middle;dominant-baseline:middle}.gate-label{font:italic .55px 'Times New Roman', 'BiauKai', 'DFKai-SB', serif;text-anchor:start;dominant-baseline:middle}.gate-label-left{font:italic .55px 'Times New Roman', 'BiauKai', 'DFKai-SB', serif;text-anchor:end;dominant-baseline:middle}
</style>
<defs><marker id="arrow" markerWidth="0.4" markerHeight="0.4" refX="0.36" refY="0.2" orient="auto" markerUnits="userSpaceOnUse"><path d="M 0 0 L 0.4 0.2 L 0 0.4 z" fill="#111"/></marker></defs>
<rect x="-10.00" y="-2.00" width="69.98" height="102.00" fill="white"/>
<path class="edge edge-arrow" data-edge-id="edge:S0O1G6I1" data-segment-ids="S0O1G6I1:1S S0O1G6I1:2E S0O1G6I1:3S" d="M 25.66 7.00 L 25.66 14.50 Q 25.66 15.00 26.16 15.00 L 40.82 15.00 Q 41.32 15.00 41.32 15.50 L 41.32 19.00"/>
<path class="edge edge-arrow" data-edge-id="edge:G6O1S1I1" data-segment-ids="G6O1S1I1:1S" d="M 41.32 19.00 L 41.32 23.00"/>
<path class="edge edge-arrow" data-edge-id="edge:S1O1G1I1" data-segment-ids="S1O1G1I1:1S" d="M 41.32 26.00 L 41.32 28.00"/>
<path class="edge edge-arrow" data-edge-id="edge:G1O1S2I1" data-segment-ids="G1O1S2I1:1S" d="M 41.32 28.00 L 41.32 32.00"/>
<path class="edge edge-arrow" data-edge-id="edge:G1O2G9I1" data-segment-ids="G1O2G9I1:1E G1O2G9I1:2S G1O2G9I1:3W G1O2G9I1:4S" d="M 41.32 28.00 L 55.48 28.00 Q 55.98 28.00 55.98 28.50 L 55.98 38.50 Q 55.98 39.00 55.48 39.00 L 30.16 39.00 Q 29.66 39.00 29.66 39.50 L 29.66 43.00"/>
<path class="edge edge-arrow" data-edge-id="edge:S2O1G2I1" data-segment-ids="S2O1G2I1:1S" d="M 41.32 35.00 L 41.32 37.00"/>
<path class="edge edge-arrow" data-edge-id="edge:G2O1S3I1" data-segment-ids="G2O1S3I1:1E G2O1S3I1:2S" d="M 25.66 37.00 L 40.82 37.00 Q 41.32 37.00 41.32 37.50 L 41.32 45.00"/>
<path class="edge edge-arrow" data-edge-id="edge:G2O2G9I2" data-segment-ids="G2O2G9I2:1S" d="M 25.66 37.00 L 25.66 43.00"/>
<path class="edge edge-arrow" data-edge-id="edge:S3O1G3I1" data-segment-ids="S3O1G3I1:1S" d="M 41.32 48.00 L 41.32 50.00"/>
<path class="edge edge-arrow" data-edge-id="edge:G3O1S4I1" data-segment-ids="G3O1S4I1:1S" d="M 41.32 50.00 L 41.32 54.00"/>
<path class="edge edge-arrow" data-edge-id="edge:G3O2G10I1" data-segment-ids="G3O2G10I1:1E G3O2G10I1:2S G3O2G10I1:3W G3O2G10I1:4S" d="M 41.32 50.00 L 55.48 50.00 Q 55.98 50.00 55.98 50.50 L 55.98 60.50 Q 55.98 61.00 55.48 61.00 L 30.16 61.00 Q 29.66 61.00 29.66 61.50 L 29.66 65.00"/>
<path class="edge edge-arrow" data-edge-id="edge:S4O1G4I1" data-segment-ids="S4O1G4I1:1S" d="M 41.32 57.00 L 41.32 59.00"/>
<path class="edge edge-arrow" data-edge-id="edge:G4O1S9I1" data-segment-ids="G4O1S9I1:1E G4O1S9I1:2S" d="M 25.66 59.00 L 40.82 59.00 Q 41.32 59.00 41.32 59.50 L 41.32 67.00"/>
<path class="edge edge-arrow" data-edge-id="edge:G4O2G10I2" data-segment-ids="G4O2G10I2:1S" d="M 25.66 59.00 L 25.66 65.00"/>
<path class="edge edge-arrow" data-edge-id="edge:S5O1G8I1" data-segment-ids="S5O1G8I1:1S" d="M 10.00 7.00 L 10.00 17.00"/>
<path class="edge edge-arrow" data-edge-id="edge:G8O1S6I1" data-segment-ids="G8O1S6I1:1S" d="M 10.00 17.00 L 10.00 23.00"/>
<path class="edge edge-arrow" data-edge-id="edge:S6O1G6I2" data-segment-ids="S6O1G6I2:1S S6O1G6I2:2W S6O1G6I2:3N S6O1G6I2:4E S6O1G6I2:5S" d="M 10.00 26.00 L 10.00 27.50 Q 10.00 28.00 9.50 28.00 L 6.50 28.00 Q 6.00 28.00 6.00 27.50 L 6.00 13.50 Q 6.00 13.00 6.50 13.00 L 36.82 13.00 Q 37.32 13.00 37.32 13.50 L 37.32 19.00"/>
<path class="edge" data-edge-id="edge:S7O1G8I2" data-segment-ids="S7O1G8I2:1S" d="M 25.66 48.00 L 25.66 50.00"/>
<path class="edge" data-edge-id="edge:S7O1G8I2" data-segment-ids="S7O1G8I2:2W" d="M 25.66 50.00 L -2.00 50.00"/>
<path class="edge" data-edge-id="edge:S7O1G8I2" data-segment-ids="S7O1G8I2:3N" d="M -2.00 50.00 L -2.00 11.00"/>
<path class="edge" data-edge-id="edge:S7O1G8I2" data-segment-ids="S7O1G8I2:4E" d="M -2.00 11.00 L 14.00 11.00"/>
<path class="edge" data-edge-id="edge:S7O1G8I2" data-segment-ids="S7O1G8I2:5S" d="M 14.00 11.00 L 14.00 21.00"/>
<path class="edge" data-edge-id="edge:S7O1G8I2" data-segment-ids="S7O1G8I2:6W" d="M 14.00 21.00 L 6.00 21.00"/>
<path class="edge edge-arrow" data-edge-id="edge:S8O1G8I3" data-segment-ids="S8O1G8I3:1S S8O1G8I3:2W S8O1G8I3:3N S8O1G8I3:4E S8O1G8I3:5S" d="M 25.66 70.00 L 25.66 71.50 Q 25.66 72.00 25.16 72.00 L -3.50 72.00 Q -4.00 72.00 -4.00 71.50 L -4.00 9.50 Q -4.00 9.00 -3.50 9.00 L 1.50 9.00 Q 2.00 9.00 2.00 9.50 L 2.00 17.00"/>
<path class="edge edge-arrow" data-edge-id="edge:S9O1G5I1" data-segment-ids="S9O1G5I1:1S" d="M 41.32 70.00 L 41.32 72.00"/>
<path class="edge edge-arrow" data-edge-id="edge:G5O1S10I1" data-segment-ids="G5O1S10I1:1S" d="M 41.32 72.00 L 41.32 76.00"/>
<path class="edge edge-arrow" data-edge-id="edge:G5O2G7I1" data-segment-ids="G5O2G7I1:1E G5O2G7I1:2S G5O2G7I1:3W G5O2G7I1:4S" d="M 41.32 72.00 L 55.48 72.00 Q 55.98 72.00 55.98 72.50 L 55.98 87.50 Q 55.98 88.00 55.48 88.00 L 14.50 88.00 Q 14.00 88.00 14.00 88.50 L 14.00 94.00"/>
<path class="edge edge-arrow" data-edge-id="edge:S10O1S11I1" data-segment-ids="S10O1S11I1:1S" d="M 41.32 79.00 L 41.32 83.00"/>
<path class="edge edge-arrow" data-edge-id="edge:S11O1G7I2" data-segment-ids="S11O1G7I2:1S S11O1G7I2:2W S11O1G7I2:3S" d="M 41.32 86.00 L 41.32 89.50 Q 41.32 90.00 40.82 90.00 L 10.50 90.00 Q 10.00 90.00 10.00 90.50 L 10.00 94.00"/>
<path class="edge edge-arrow" data-edge-id="edge:G7O1S5I1" data-segment-ids="G7O1S5I1:1S G7O1S5I1:2W G7O1S5I1:3N G7O1S5I1:4E G7O1S5I1:5S" d="M 10.00 94.00 L 10.00 95.50 Q 10.00 96.00 9.50 96.00 L -5.50 96.00 Q -6.00 96.00 -6.00 95.50 L -6.00 2.50 Q -6.00 2.00 -5.50 2.00 L 9.50 2.00 Q 10.00 2.00 10.00 2.50 L 10.00 4.00"/>
<path class="edge edge-arrow" data-edge-id="edge:G9O1S7I1" data-segment-ids="G9O1S7I1:1S" d="M 25.66 43.00 L 25.66 45.00"/>
<path class="edge edge-arrow" data-edge-id="edge:G10O1S8I1" data-segment-ids="G10O1S8I1:1S" d="M 25.66 65.00 L 25.66 67.00"/>
<rect class="step" x="23.66" y="4.00" width="4.00" height="3.00" rx="0.35" ry="0.35"/>
<rect class="step-inner" x="23.91" y="4.25" width="3.50" height="2.50" rx="0.22" ry="0.22"/>
<text class="label" x="25.66" y="5.50">0</text>
<rect class="step" x="39.32" y="23.00" width="4.00" height="3.00" rx="0.35" ry="0.35"/>
<text class="label" x="41.32" y="24.50">1</text>
<rect class="step" x="39.32" y="32.00" width="4.00" height="3.00" rx="0.35" ry="0.35"/>
<text class="label" x="41.32" y="33.50">2</text>
<rect class="step" x="39.32" y="45.00" width="4.00" height="3.00" rx="0.35" ry="0.35"/>
<text class="label" x="41.32" y="46.50">3</text>
<rect class="step" x="39.32" y="54.00" width="4.00" height="3.00" rx="0.35" ry="0.35"/>
<text class="label" x="41.32" y="55.50">4</text>
<rect class="step" x="8.00" y="4.00" width="4.00" height="3.00" rx="0.35" ry="0.35"/>
<text class="label" x="10.00" y="5.50">5</text>
<rect class="step" x="8.00" y="23.00" width="4.00" height="3.00" rx="0.35" ry="0.35"/>
<text class="label" x="10.00" y="24.50">6</text>
<rect class="step" x="23.66" y="45.00" width="4.00" height="3.00" rx="0.35" ry="0.35"/>
<text class="label" x="25.66" y="46.50">7</text>
<rect class="step" x="23.66" y="67.00" width="4.00" height="3.00" rx="0.35" ry="0.35"/>
<text class="label" x="25.66" y="68.50">8</text>
<rect class="step" x="39.32" y="67.00" width="4.00" height="3.00" rx="0.35" ry="0.35"/>
<text class="label" x="41.32" y="68.50">9</text>
<rect class="step" x="39.32" y="76.00" width="4.00" height="3.00" rx="0.35" ry="0.35"/>
<text class="label" x="41.32" y="77.50">10</text>
<rect class="step" x="39.32" y="83.00" width="4.00" height="3.00" rx="0.35" ry="0.35"/>
<text class="label" x="41.32" y="84.50">11</text>
<line class="assoc" x1="27.66" y1="5.50" x2="28.66" y2="5.50"/>
<rect class="action" x="28.66" y="4.07" width="9.66" height="2.86"/>
<text class="action-label" x="33.49" y="5.09"><tspan x="33.49" dy="0">Initialize observability runtime</tspan><tspan x="33.49" dy="0.82">from sanitized configuration</tspan></text>
<line class="assoc" x1="43.32" y1="24.50" x2="44.32" y2="24.50"/>
<rect class="action" x="44.32" y="23.07" width="9.66" height="2.86"/>
<text class="action-label" x="49.15" y="24.09"><tspan x="49.15" dy="0">Detect approved NAS monitoring</tspan><tspan x="49.15" dy="0.82">and evidence capabilities</tspan></text>
<line class="assoc" x1="43.32" y1="33.50" x2="44.32" y2="33.50"/>
<rect class="action" x="44.32" y="32.07" width="9.66" height="2.86"/>
<text class="action-label" x="49.15" y="32.68"><tspan x="49.15" dy="0">Collect metadata-first</tspan><tspan x="49.15" dy="0.82">evidence from nginx, Drive</tspan><tspan x="49.15" dy="0.82">DB, File Station DB, or fixtures</tspan></text>
<line class="assoc" x1="43.32" y1="46.50" x2="44.32" y2="46.50"/>
<rect class="action" x="44.32" y="45.07" width="9.66" height="2.86"/>
<text class="action-label" x="49.15" y="46.09"><tspan x="49.15" dy="0">Normalize evidence into</tspan><tspan x="49.15" dy="0.82">Warroom DLP event payload</tspan></text>
<line class="assoc" x1="43.32" y1="55.50" x2="44.32" y2="55.50"/>
<rect class="action" x="44.32" y="54.07" width="9.66" height="2.86"/>
<text class="action-label" x="49.15" y="55.09"><tspan x="49.15" dy="0">Emit dry-run JSONL or push</tspan><tspan x="49.15" dy="0.82">bounded-label stream to Loki</tspan></text>
<line class="assoc" x1="12.00" y1="5.50" x2="13.00" y2="5.50"/>
<rect class="action" x="13.00" y="4.07" width="9.66" height="2.86"/>
<text class="action-label" x="17.83" y="4.68"><tspan x="17.83" dy="0">Visualize evidence, route activity,</tspan><tspan x="17.83" dy="0.82">file evidence, AI anomaly alerts,</tspan><tspan x="17.83" dy="0.82">and capability gaps in Grafana</tspan></text>
<line class="assoc" x1="12.00" y1="24.50" x2="13.00" y2="24.50"/>
<rect class="action" x="13.00" y="23.07" width="9.66" height="2.86"/>
<text class="action-label" x="17.83" y="24.09"><tspan x="17.83" dy="0">Complete POC evidence cycle and</tspan><tspan x="17.83" dy="0.82">wait for next observation window</tspan></text>
<line class="assoc" x1="27.66" y1="46.50" x2="28.66" y2="46.50"/>
<rect class="action" x="28.66" y="45.07" width="9.66" height="2.86"/>
<text class="action-label" x="33.49" y="46.09"><tspan x="33.49" dy="0">Record capability_gap instead</tspan><tspan x="33.49" dy="0.82">of guessing unavailable evidence</tspan></text>
<line class="assoc" x1="27.66" y1="68.50" x2="28.66" y2="68.50"/>
<rect class="action" x="28.66" y="67.07" width="9.66" height="2.86"/>
<text class="action-label" x="33.49" y="68.09"><tspan x="33.49" dy="0">Fail fast with explicit validation</tspan><tspan x="33.49" dy="0.82">error and preserve safe diagnostics</tspan></text>
<line class="assoc" x1="43.32" y1="68.50" x2="44.32" y2="68.50"/>
<rect class="action" x="44.32" y="67.07" width="9.66" height="2.86"/>
<text class="action-label" x="49.15" y="67.68"><tspan x="49.15" dy="0">Query normalized events via LogQL and</tspan><tspan x="49.15" dy="0.82">apply deterministic rules plus rolling</tspan><tspan x="49.15" dy="0.82">baseline to produce anomaly candidates</tspan></text>
<line class="assoc" x1="43.32" y1="77.50" x2="44.32" y2="77.50"/>
<rect class="action" x="44.32" y="76.07" width="9.66" height="2.86"/>
<text class="action-label" x="49.15" y="76.68"><tspan x="49.15" dy="0">Send de-identified evidence to LLM</tspan><tspan x="49.15" dy="0.82">triage for severity, confidence,</tspan><tspan x="49.15" dy="0.82">reason, and recommended actions</tspan></text>
<line class="assoc" x1="43.32" y1="84.50" x2="44.32" y2="84.50"/>
<rect class="action" x="44.32" y="83.07" width="9.66" height="2.86"/>
<text class="action-label" x="49.15" y="83.68"><tspan x="49.15" dy="0">Deduplicate and push ai_anomaly_</tspan><tspan x="49.15" dy="0.82">alert with bounded labels back</tspan><tspan x="49.15" dy="0.82">to Loki for Grafana Alerting</tspan></text>
<line class="gate" x1="35.32" y1="19.00" x2="43.32" y2="19.00"/>
<circle class="branch-junction" cx="41.32" cy="28.00" r="0.28"/>
<circle class="branch-junction" cx="25.66" cy="37.00" r="0.28"/>
<circle class="branch-junction" cx="41.32" cy="50.00" r="0.28"/>
<circle class="branch-junction" cx="25.66" cy="59.00" r="0.28"/>
<line class="gate" x1="0.00" y1="17.00" x2="12.00" y2="17.00"/>
<circle class="branch-junction" cx="41.32" cy="72.00" r="0.28"/>
<line class="gate" x1="8.00" y1="94.00" x2="16.00" y2="94.00"/>
<line class="gate" x1="23.66" y1="43.00" x2="31.66" y2="43.00"/>
<line class="gate" x1="23.66" y1="65.00" x2="31.66" y2="65.00"/>
<line class="gate" x1="40.32" y1="17.00" x2="42.32" y2="17.00" data-label-kind="condition-stub" data-edge-id="edge:S0O1G6I1" data-arrow-id="condition_stub:T1" data-transition-id="T1" data-condition-stub-id="condition_stub:T1"/>
<text class="gate-label" x="42.72" y="17.00" data-label-kind="condition-stub" data-edge-id="edge:S0O1G6I1" data-arrow-id="condition_stub:T1" data-transition-id="T1" data-condition-stub-id="condition_stub:T1"><tspan x="42.72" dy="0">docker_compose_config_valid</tspan></text>
<line class="gate" x1="40.32" y1="30.00" x2="42.32" y2="30.00" data-label-kind="condition-stub" data-edge-id="edge:G1O1S2I1" data-arrow-id="condition_stub:T2" data-transition-id="T2" data-condition-stub-id="condition_stub:T2"/>
<text class="gate-label" x="42.72" y="30.00" data-label-kind="condition-stub" data-edge-id="edge:G1O1S2I1" data-arrow-id="condition_stub:T2" data-transition-id="T2" data-condition-stub-id="condition_stub:T2"><tspan x="42.72" dy="0">capability_surface_available</tspan></text>
<line class="gate" x1="28.66" y1="41.00" x2="30.66" y2="41.00" data-label-kind="condition-stub" data-edge-id="edge:G1O2G9I1" data-arrow-id="condition_stub:T3" data-transition-id="T3" data-condition-stub-id="condition_stub:T3"/>
<text class="gate-label" x="31.06" y="41.00" data-label-kind="condition-stub" data-edge-id="edge:G1O2G9I1" data-arrow-id="condition_stub:T3" data-transition-id="T3" data-condition-stub-id="condition_stub:T3"><tspan x="31.06" dy="0">capability_surface_missing_or_blocked</tspan></text>
<line class="gate" x1="40.32" y1="41.00" x2="42.32" y2="41.00" data-label-kind="condition-stub" data-edge-id="edge:G2O1S3I1" data-arrow-id="condition_stub:T4" data-transition-id="T4" data-condition-stub-id="condition_stub:T4"/>
<text class="gate-label" x="42.72" y="41.00" data-label-kind="condition-stub" data-edge-id="edge:G2O1S3I1" data-arrow-id="condition_stub:T4" data-transition-id="T4" data-condition-stub-id="condition_stub:T4"><tspan x="42.72" dy="0">evidence_candidate_observed</tspan></text>
<line class="gate" x1="24.66" y1="39.00" x2="26.66" y2="39.00" data-label-kind="condition-stub" data-edge-id="edge:G2O2G9I2" data-arrow-id="condition_stub:T5" data-transition-id="T5" data-condition-stub-id="condition_stub:T5"/>
<text class="gate-label-left" x="24.26" y="39.00" data-label-kind="condition-stub" data-edge-id="edge:G2O2G9I2" data-arrow-id="condition_stub:T5" data-transition-id="T5" data-condition-stub-id="condition_stub:T5"><tspan x="24.26" dy="0">evidence_source_unreliable</tspan></text>
<line class="gate" x1="40.32" y1="52.00" x2="42.32" y2="52.00" data-label-kind="condition-stub" data-edge-id="edge:G3O1S4I1" data-arrow-id="condition_stub:T6" data-transition-id="T6" data-condition-stub-id="condition_stub:T6"/>
<text class="gate-label" x="42.72" y="52.00" data-label-kind="condition-stub" data-edge-id="edge:G3O1S4I1" data-arrow-id="condition_stub:T6" data-transition-id="T6" data-condition-stub-id="condition_stub:T6"><tspan x="42.72" dy="0">required_fields_valid_and_labels_bounded</tspan></text>
<line class="gate" x1="28.66" y1="63.00" x2="30.66" y2="63.00" data-label-kind="condition-stub" data-edge-id="edge:G3O2G10I1" data-arrow-id="condition_stub:T7" data-transition-id="T7" data-condition-stub-id="condition_stub:T7"/>
<text class="gate-label" x="31.06" y="63.00" data-label-kind="condition-stub" data-edge-id="edge:G3O2G10I1" data-arrow-id="condition_stub:T7" data-transition-id="T7" data-condition-stub-id="condition_stub:T7"><tspan x="31.06" dy="0">validation_failed</tspan></text>
<line class="gate" x1="40.32" y1="63.00" x2="42.32" y2="63.00" data-label-kind="condition-stub" data-edge-id="edge:G4O1S9I1" data-arrow-id="condition_stub:T8" data-transition-id="T8" data-condition-stub-id="condition_stub:T8"/>
<text class="gate-label" x="42.72" y="63.00" data-label-kind="condition-stub" data-edge-id="edge:G4O1S9I1" data-arrow-id="condition_stub:T8" data-transition-id="T8" data-condition-stub-id="condition_stub:T8"><tspan x="42.72" dy="0">collector_emit_success</tspan></text>
<line class="gate" x1="24.66" y1="61.00" x2="26.66" y2="61.00" data-label-kind="condition-stub" data-edge-id="edge:G4O2G10I2" data-arrow-id="condition_stub:T9" data-transition-id="T9" data-condition-stub-id="condition_stub:T9"/>
<text class="gate-label-left" x="24.26" y="61.00" data-label-kind="condition-stub" data-edge-id="edge:G4O2G10I2" data-arrow-id="condition_stub:T9" data-transition-id="T9" data-condition-stub-id="condition_stub:T9"><tspan x="24.26" dy="0">collector_emit_failed</tspan></text>
<line class="gate" x1="9.00" y1="15.00" x2="11.00" y2="15.00" data-label-kind="condition-stub" data-edge-id="edge:S5O1G8I1" data-arrow-id="condition_stub:T10" data-transition-id="T10" data-condition-stub-id="condition_stub:T10"/>
<text class="gate-label" x="14.20" y="15.68" data-label-kind="condition-stub" data-edge-id="edge:S5O1G8I1" data-arrow-id="condition_stub:T10" data-transition-id="T10" data-condition-stub-id="condition_stub:T10"><tspan x="14.20" dy="0">dashboard_queries_return_evidence_or_empty_safe_state</tspan></text>
<line class="gate" x1="36.32" y1="17.00" x2="38.32" y2="17.00" data-label-kind="condition-stub" data-edge-id="edge:S6O1G6I2" data-arrow-id="condition_stub:T11" data-transition-id="T11" data-condition-stub-id="condition_stub:T11"/>
<text class="gate-label-left" x="35.92" y="17.68" data-label-kind="condition-stub" data-edge-id="edge:S6O1G6I2" data-arrow-id="condition_stub:T11" data-transition-id="T11" data-condition-stub-id="condition_stub:T11"><tspan x="35.92" dy="0">next_poll_or_manual_test_requested</tspan></text>
<line class="gate" x1="8.00" y1="18.00" x2="8.00" y2="20.00" data-label-kind="condition-stub" data-edge-id="edge:S7O1G8I2" data-arrow-id="condition_stub:T12" data-transition-id="T12" data-condition-stub-id="condition_stub:T12"/>
<text class="gate-label" x="10.80" y="19.00" data-label-kind="condition-stub" data-edge-id="edge:S7O1G8I2" data-arrow-id="condition_stub:T12" data-transition-id="T12" data-condition-stub-id="condition_stub:T12"><tspan x="10.80" dy="0">gap_recorded_with_source_and_reason</tspan></text>
<line class="gate" x1="1.00" y1="15.00" x2="3.00" y2="15.00" data-label-kind="condition-stub" data-edge-id="edge:S8O1G8I3" data-arrow-id="condition_stub:T13" data-transition-id="T13" data-condition-stub-id="condition_stub:T13"/>
<text class="gate-label-left" x="0.60" y="14.32" data-label-kind="condition-stub" data-edge-id="edge:S8O1G8I3" data-arrow-id="condition_stub:T13" data-transition-id="T13" data-condition-stub-id="condition_stub:T13"><tspan x="0.60" dy="0">safe_error_</tspan><tspan x="0.60" dy="0.68">payload_</tspan><tspan x="0.60" dy="0.68">written</tspan></text>
<line class="gate" x1="40.32" y1="74.00" x2="42.32" y2="74.00" data-label-kind="condition-stub" data-edge-id="edge:G5O1S10I1" data-arrow-id="condition_stub:T14" data-transition-id="T14" data-condition-stub-id="condition_stub:T14"/>
<text class="gate-label" x="42.72" y="74.00" data-label-kind="condition-stub" data-edge-id="edge:G5O1S10I1" data-arrow-id="condition_stub:T14" data-transition-id="T14" data-condition-stub-id="condition_stub:T14"><tspan x="42.72" dy="0">anomaly_candidate_emitted</tspan></text>
<line class="gate" x1="13.00" y1="92.00" x2="15.00" y2="92.00" data-label-kind="condition-stub" data-edge-id="edge:G5O2G7I1" data-arrow-id="condition_stub:T15" data-transition-id="T15" data-condition-stub-id="condition_stub:T15"/>
<text class="gate-label" x="15.40" y="92.00" data-label-kind="condition-stub" data-edge-id="edge:G5O2G7I1" data-arrow-id="condition_stub:T15" data-transition-id="T15" data-condition-stub-id="condition_stub:T15"><tspan x="15.40" dy="0">no_candidate_safe_state</tspan></text>
<line class="gate" x1="40.32" y1="81.00" x2="42.32" y2="81.00" data-label-kind="condition-stub" data-edge-id="edge:S10O1S11I1" data-arrow-id="condition_stub:T16" data-transition-id="T16" data-condition-stub-id="condition_stub:T16"/>
<text class="gate-label" x="42.72" y="81.00" data-label-kind="condition-stub" data-edge-id="edge:S10O1S11I1" data-arrow-id="condition_stub:T16" data-transition-id="T16" data-condition-stub-id="condition_stub:T16"><tspan x="42.72" dy="0">llm_triage_completed_or_timeout_safe</tspan></text>
<line class="gate" x1="9.00" y1="92.00" x2="11.00" y2="92.00" data-label-kind="condition-stub" data-edge-id="edge:S11O1G7I2" data-arrow-id="condition_stub:T17" data-transition-id="T17" data-condition-stub-id="condition_stub:T17"/>
<text class="gate-label-left" x="8.60" y="92.00" data-label-kind="condition-stub" data-edge-id="edge:S11O1G7I2" data-arrow-id="condition_stub:T17" data-transition-id="T17" data-condition-stub-id="condition_stub:T17"><tspan x="8.60" dy="0">alert_pushed_with_bounded_labels</tspan></text>
</svg>